<svg width="20" height="20" viewBox="0 0 20 20" fill="none" xmlns="http://www.w3.org/2000/svg">
<path fill-rule="evenodd" clip-rule="evenodd" d="M9.875 1C6.08063 1 3 4.08063 3 7.875C3 9.61125 4.03375 11.6756 5.31188 13.5119C7.14875 16.1519 9.445 18.3288 9.445 18.3288C9.68625 18.5569 10.0637 18.5569 10.305 18.3288C10.305 18.3288 12.6013 16.1519 14.4381 13.5119C15.7163 11.6756 16.75 9.61125 16.75 7.875C16.75 4.08063 13.6694 1 9.875 1ZM9.875 4.4375C7.9775 4.4375 6.4375 5.9775 6.4375 7.875C6.4375 9.7725 7.9775 11.3125 9.875 11.3125C11.7725 11.3125 13.3125 9.7725 13.3125 7.875C13.3125 5.9775 11.7725 4.4375 9.875 4.4375ZM9.875 5.6875C11.0825 5.6875 12.0625 6.6675 12.0625 7.875C12.0625 9.0825 11.0825 10.0625 9.875 10.0625C8.6675 10.0625 7.6875 9.0825 7.6875 7.875C7.6875 6.6675 8.6675 5.6875 9.875 5.6875Z" fill="#BDA99B"/>
</svg>
