<svg width="80" height="80" viewBox="0 0 80 80" fill="none" xmlns="http://www.w3.org/2000/svg">
<rect width="80" height="80" rx="15" fill="#FB7E38"/>
<path d="M35.6711 24.7473L36.1965 27.3495C33.9773 27.7636 31.8824 28.6477 30.0645 29.9373C28.2467 31.2269 26.7516 32.8895 25.6884 34.804C24.6252 36.7184 24.0207 38.8364 23.9189 41.0034C23.8171 43.1705 24.2206 45.3321 25.0999 47.3306L22.5581 48.3621C21.5183 46.0003 21.0411 43.4457 21.1611 40.8844C21.2811 38.3232 21.9953 35.8199 23.2518 33.5573C24.5082 31.2946 26.2752 29.3295 28.4237 27.8054C30.5723 26.2813 33.0483 25.2365 35.6711 24.7473ZM27.6235 54.9069L29.391 52.8671C32.1146 55.0466 35.5501 56.238 39.0966 56.2327C42.7408 56.2327 46.1816 54.9972 48.9056 52.7855L50.6912 54.8078C47.4523 57.4443 43.341 58.8884 39.0936 58.8815C34.903 58.8873 30.8434 57.4805 27.6235 54.9069ZM45.3282 28.3607C44.8332 29.585 43.8905 30.5945 42.6764 31.2006C41.4623 31.8067 40.0597 31.968 38.7307 31.6543C37.4017 31.3406 36.2372 30.5734 35.4547 29.496C34.6721 28.4186 34.3252 27.1047 34.4785 25.7997C34.6319 24.4947 35.2751 23.2879 36.288 22.4048C37.301 21.5217 38.6143 21.0226 39.9827 21.0007C41.3512 20.9789 42.6811 21.4359 43.724 22.2862C44.767 23.1366 45.4516 24.3222 45.6501 25.6215C48.5488 26.7136 51.1019 28.5099 53.059 30.8343C55.0161 33.1587 56.3099 35.9312 56.8135 38.8801C56.8742 39.2414 56.9258 39.7193 56.9714 40.3137C56.9844 40.4857 56.9602 40.6584 56.9004 40.821C56.8406 40.9836 56.7465 41.1326 56.6239 41.2587C56.5013 41.3848 56.3529 41.4853 56.188 41.5538C56.0231 41.6224 55.8453 41.6575 55.6656 41.6571C55.2996 41.6573 54.9472 41.5246 54.679 41.2857C54.4109 41.0467 54.2469 40.7193 54.22 40.3691C53.9812 37.791 53.0318 35.3202 51.4692 33.2104C49.9066 31.1007 47.7871 29.4278 45.3282 28.3636V28.3607ZM40.0775 29.5321C40.514 29.5448 40.9487 29.4734 41.3559 29.3219C41.7631 29.1705 42.1344 28.9421 42.4479 28.6504C42.7613 28.3587 43.0105 28.0095 43.1807 27.6236C43.3509 27.2377 43.4386 26.8229 43.4386 26.4039C43.4386 25.9849 43.3509 25.5701 43.1807 25.1843C43.0105 24.7984 42.7613 24.4492 42.4479 24.1575C42.1344 23.8657 41.7631 23.6374 41.3559 23.4859C40.9487 23.3345 40.514 23.263 40.0775 23.2758C39.2301 23.3006 38.4261 23.6411 37.8359 24.225C37.2456 24.8089 36.9155 25.5904 36.9155 26.4039C36.9155 27.2174 37.2456 27.9989 37.8359 28.5829C38.4261 29.1668 39.2301 29.5072 40.0775 29.5321ZM26.7641 56.3405C26.0135 56.3573 25.267 56.2298 24.5685 55.9658C23.87 55.7017 23.2335 55.3064 22.6965 54.8029C22.1595 54.2994 21.7327 53.6981 21.4414 53.0341C21.1501 52.3701 21 51.657 21 50.9366C21 50.2162 21.1501 49.503 21.4414 48.8391C21.7327 48.1751 22.1595 47.5737 22.6965 47.0703C23.2335 46.5668 23.87 46.1714 24.5685 45.9074C25.267 45.6433 26.0135 45.5159 26.7641 45.5326C28.2581 45.5326 29.691 46.1021 30.7474 47.1158C31.8039 48.1296 32.3974 49.5044 32.3974 50.938C32.3974 52.3716 31.8039 53.7465 30.7474 54.7602C29.691 55.7739 28.2581 56.3434 26.7641 56.3434V56.3405ZM26.7641 54.0676C27.1924 54.0677 27.6166 53.9868 28.0124 53.8295C28.4081 53.6723 28.7677 53.4417 29.0706 53.1511C29.3735 52.8605 29.6138 52.5155 29.7777 52.1358C29.9416 51.756 30.026 51.3491 30.026 50.938C30.026 50.527 29.9416 50.12 29.7777 49.7403C29.6138 49.3606 29.3735 49.0156 29.0706 48.725C28.7677 48.4343 28.4081 48.2038 28.0124 48.0466C27.6166 47.8893 27.1924 47.8084 26.7641 47.8084C25.8991 47.8085 25.0697 48.1383 24.4581 48.7252C23.8465 49.3121 23.5029 50.1081 23.5029 50.938C23.5029 51.768 23.8465 52.564 24.4581 53.1509C25.0697 53.7378 25.8991 54.0675 26.7641 54.0676ZM53.3667 56.3405C52.6161 56.3573 51.8696 56.2298 51.1711 55.9658C50.4725 55.7017 49.8361 55.3064 49.2991 54.8029C48.762 54.2994 48.3353 53.6981 48.044 53.0341C47.7527 52.3701 47.6026 51.657 47.6026 50.9366C47.6026 50.2162 47.7527 49.503 48.044 48.8391C48.3353 48.1751 48.762 47.5737 49.2991 47.0703C49.8361 46.5668 50.4725 46.1714 51.1711 45.9074C51.8696 45.6433 52.6161 45.5159 53.3667 45.5326C54.8607 45.5326 56.2936 46.1021 57.35 47.1158C58.4065 48.1296 59 49.5044 59 50.938C59 52.3716 58.4065 53.7465 57.35 54.7602C56.2936 55.7739 54.8607 56.3434 53.3667 56.3434V56.3405ZM53.3667 54.0676C53.795 54.0677 54.2192 53.9868 54.6149 53.8295C55.0107 53.6723 55.3703 53.4417 55.6732 53.1511C55.9761 52.8605 56.2164 52.5155 56.3803 52.1358C56.5442 51.756 56.6286 51.3491 56.6286 50.938C56.6286 50.527 56.5442 50.12 56.3803 49.7403C56.2164 49.3606 55.9761 49.0156 55.6732 48.725C55.3703 48.4343 55.0107 48.2038 54.6149 48.0466C54.2192 47.8893 53.795 47.8084 53.3667 47.8084C52.5017 47.8085 51.6722 48.1383 51.0607 48.7252C50.4491 49.3121 50.1055 50.1081 50.1055 50.938C50.1055 51.768 50.4491 52.564 51.0607 53.1509C51.6722 53.7378 52.5017 54.0675 53.3667 54.0676Z" fill="white"/>
</svg>
