<svg width="65" height="65" viewBox="0 0 65 65" fill="none" xmlns="http://www.w3.org/2000/svg">
<g id="icon_return">
<rect width="65" height="65" rx="32.5" fill="white"/>
<path id="Union" fill-rule="evenodd" clip-rule="evenodd" d="M27.0183 24.1568C29.1318 22.9732 31.6015 22.5919 33.9735 23.0831C36.3455 23.5744 38.4606 24.905 39.9303 26.8307C40.6841 27.8184 41.2421 28.9286 41.5863 30.102C41.1168 29.9901 40.6019 30.1173 40.2356 30.4836C39.6744 31.0449 39.6744 31.9548 40.2356 32.516L42.3912 34.6716C42.6607 34.9411 43.0262 35.0925 43.4073 35.0925C43.7885 35.0925 44.154 34.9411 44.4235 34.6715L46.5791 32.516C47.1403 31.9547 47.1403 31.0449 46.5791 30.4836C46.0416 29.9461 45.1842 29.9234 44.6197 30.4156C44.2381 28.4933 43.4217 26.6681 42.2151 25.087L42.2151 25.087C40.3255 22.6112 37.6061 20.9003 34.5563 20.2687L34.286 21.5741L34.5563 20.2687C31.5066 19.6372 28.3313 20.1273 25.6139 21.6491C22.8966 23.1709 20.8196 25.6221 19.7646 28.5525L19.7646 28.5525C18.7096 31.4829 18.7475 34.6954 19.8712 37.6001C20.9949 40.5048 23.1291 42.9064 25.8815 44.3637C28.634 45.8212 31.8199 46.2364 34.854 45.5331C37.888 44.8298 40.5664 43.0554 42.397 40.5357C42.8635 39.8936 42.7211 38.9949 42.079 38.5284C41.4369 38.0619 40.5383 38.2043 40.0718 38.8464C38.648 40.8061 36.5648 42.1862 34.205 42.7332C31.8452 43.2802 29.3673 42.9573 27.2265 41.8237L27.2264 41.8237C25.0856 40.6903 23.4258 38.8224 22.5517 36.5631C21.6777 34.3039 21.6483 31.8053 22.4688 29.5261C23.2894 27.2469 24.9048 25.3404 27.0183 24.1568L26.3161 22.9029L27.0183 24.1568ZM33.372 27.185C33.372 26.3913 32.7286 25.7479 31.9349 25.7479C31.1413 25.7479 30.4979 26.3913 30.4979 27.185V32.9332C30.4979 33.3143 30.6493 33.6799 30.9188 33.9494L35.23 38.2605C35.7912 38.8218 36.7011 38.8218 37.2623 38.2605C37.8235 37.6993 37.8235 36.7894 37.2623 36.2282L33.372 32.3379V27.185Z" fill="#FF6B00"/>
</g>
</svg>
