<svg width="65" height="65" viewBox="0 0 65 65" fill="none" xmlns="http://www.w3.org/2000/svg">
<rect width="65" height="65" rx="32.5" fill="white"/>
<path d="M44.2836 21.3628H19V38.1782H28.3689L24.2514 45.508L25.3356 46.117L27.6939 41.9187H35.3945L37.7528 46.117L38.8369 45.508L34.7195 38.1782H44.2836V21.3628ZM34.696 40.6752H28.3924L29.7951 38.1782H33.2934L34.696 40.6752ZM43.0401 36.9347H20.2435V22.6062H43.0401V36.9347Z" fill="#FF6B00"/>
<path d="M26.9825 29.8134L29.9579 32.7889L34.2899 28.457L36.8113 30.9784L41.2577 26.532L40.3783 25.6528L36.8113 29.2199L34.2899 26.6984L29.9579 31.0304L26.9825 28.0549L22.0273 33.0099L22.9067 33.8891L26.9825 29.8134Z" fill="#FF6B00"/>
<path d="M34.8882 19H28.3945V20.2435H34.8882V19Z" fill="#FF6B00"/>
</svg>
