<svg width="20" height="20" viewBox="0 0 20 20" fill="none" xmlns="http://www.w3.org/2000/svg">
<path d="M4.25169 1.77374C2.99711 2.5874 2.75065 5.13076 3.22431 7.20368C3.5932 8.81794 4.37747 10.9834 5.69996 13.0224C6.94405 14.9407 8.67975 16.6607 10.0032 17.6559C11.7028 18.9337 14.1255 19.746 15.3801 18.9323C16.0145 18.5209 16.957 17.3968 17 17.1951C17 17.1951 16.4473 16.3429 16.326 16.1559L14.4726 13.2981C14.3349 13.0858 13.4712 13.2799 13.0324 13.5284C12.4405 13.8638 11.8954 14.7636 11.8954 14.7636C11.4896 14.9981 11.1496 14.7644 10.4394 14.4376C9.56651 14.0359 8.5851 12.7881 7.804 11.6578C7.09059 10.4837 6.35142 9.0787 6.34073 8.1179C6.33192 7.33613 6.25724 6.93051 6.63686 6.65556C6.63686 6.65556 7.68075 6.52482 8.22834 6.1212C8.63421 5.82193 9.16368 5.11247 9.02595 4.90007L7.17254 2.04235C7.05125 1.85534 6.49857 1.00316 6.49857 1.00316C6.29683 0.96019 4.88608 1.36231 4.25169 1.77374Z" fill="#BDA99B"/>
</svg>
