<svg width="80" height="80" viewBox="0 0 80 80" fill="none" xmlns="http://www.w3.org/2000/svg">
<rect width="80" height="80" rx="15" fill="#F36060"/>
<path d="M46.1156 24.5625H33.8844C32.6728 24.5656 31.5117 25.0483 30.655 25.905C29.7983 26.7617 29.3156 27.9228 29.3125 29.1344V50.8656C29.3156 52.0772 29.7983 53.2383 30.655 54.095C31.5117 54.9517 32.6728 55.4344 33.8844 55.4375H46.1156C47.3272 55.4344 48.4883 54.9517 49.345 54.095C50.2017 53.2383 50.6844 52.0772 50.6875 50.8656V29.1344C50.6844 27.9228 50.2017 26.7617 49.345 25.905C48.4883 25.0483 47.3272 24.5656 46.1156 24.5625ZM33.8844 26.9375H46.1156C46.6983 26.9375 47.2571 27.169 47.6691 27.5809C48.081 27.9929 48.3125 28.5517 48.3125 29.1344V29.3125H31.6875V29.1344C31.6875 28.5517 31.919 27.9929 32.3309 27.5809C32.7429 27.169 33.3017 26.9375 33.8844 26.9375ZM48.3125 50.8656C48.3125 51.1541 48.2557 51.4398 48.1453 51.7063C48.0349 51.9729 47.873 52.2151 47.6691 52.4191C47.4651 52.623 47.2229 52.7849 46.9563 52.8953C46.6898 53.0057 46.4041 53.0625 46.1156 53.0625H33.8844C33.5959 53.0625 33.3102 53.0057 33.0437 52.8953C32.7771 52.7849 32.5349 52.623 32.3309 52.4191C32.127 52.2151 31.9651 51.9729 31.8547 51.7063C31.7443 51.4398 31.6875 51.1541 31.6875 50.8656V50.6875H48.3125V50.8656ZM31.6875 48.3125V31.6875H48.3125V48.3125H31.6875Z" fill="white"/>
<path d="M43.5589 36.1881L38.4645 41.2943L36.4339 39.1568C36.2103 38.9332 35.907 38.8076 35.5908 38.8076C35.2746 38.8076 34.9713 38.9332 34.7477 39.1568C34.5241 39.3805 34.3984 39.6837 34.3984 40C34.3984 40.3162 34.5241 40.6195 34.7477 40.8431L37.7164 43.8118C37.8268 43.9231 37.9582 44.0115 38.1029 44.0718C38.2476 44.1321 38.4028 44.1631 38.5595 44.1631C38.7163 44.1631 38.8715 44.1321 39.0162 44.0718C39.1609 44.0115 39.2923 43.9231 39.4027 43.8118L45.3402 37.8743C45.4509 37.7574 45.5375 37.6198 45.595 37.4693C45.6526 37.3189 45.6799 37.1586 45.6755 36.9976C45.6711 36.8366 45.635 36.6781 45.5693 36.531C45.5036 36.384 45.4096 36.2513 45.2927 36.1406C45.1757 36.0299 45.0381 35.9433 44.8877 35.8857C44.7372 35.8282 44.577 35.8009 44.416 35.8053C44.255 35.8097 44.0964 35.8458 43.9494 35.9114C43.8023 35.9771 43.6696 36.0711 43.5589 36.1881Z" fill="white"/>
</svg>
