<svg width="80" height="80" viewBox="0 0 80 80" fill="none" xmlns="http://www.w3.org/2000/svg">
<rect width="80" height="80" rx="15" fill="#4BA67A"/>
<path d="M40.0001 24C32.589 24 27 27.0404 27 31.0726V48.4448C27 52.477 32.589 55.5174 40.0001 55.5174C47.4113 55.5174 53 52.477 53 48.4448V31.0726C53 27.0404 47.4113 24 40.0001 24ZM48.5203 36.4932C48.566 36.4721 48.6073 36.4483 48.6525 36.4268C48.9279 36.2981 49.1985 36.1657 49.4546 36.0235V39.73C49.4546 41.3167 45.8579 43.5299 40.0001 43.5299C34.1425 43.5299 30.5454 41.3167 30.5454 39.73V36.0156C32.88 37.3404 36.1964 38.1453 40.0001 38.1453C43.2861 38.1453 46.2047 37.5425 48.4443 36.5249C48.469 36.5139 48.4957 36.5044 48.5203 36.4932ZM30.5454 44.6728C32.88 45.9978 36.1964 46.8026 40.0001 46.8026C43.298 46.8026 46.2269 46.1961 48.4697 45.1717C48.4852 45.1648 48.5021 45.1587 48.5175 45.1518C48.5731 45.126 48.6233 45.0972 48.678 45.071C48.9441 44.946 49.2067 44.8183 49.4546 44.6806V48.4448C49.4546 50.0316 45.8579 52.2448 40.0001 52.2448C34.1425 52.2448 30.5454 50.0316 30.5454 48.4448V44.6728ZM40.0001 34.8726C34.1425 34.8726 30.5454 32.6594 30.5454 31.0726C30.5454 29.4858 34.1425 27.2726 40.0001 27.2726C45.8579 27.2726 49.4546 29.4858 49.4546 31.0726C49.4546 32.6594 45.8579 34.8726 40.0001 34.8726Z" fill="white"/>
</svg>
