<svg width="80" height="80" viewBox="0 0 80 80" fill="none" xmlns="http://www.w3.org/2000/svg">
<rect width="80" height="80" rx="15" fill="#47819A"/>
<path fill-rule="evenodd" clip-rule="evenodd" d="M49.444 26.2159C47.7154 26.2159 46.3299 27.4187 46.3299 28.9193C46.3299 30.364 47.6098 31.5283 49.23 31.6195C49.3659 31.6091 49.5051 31.6091 49.641 31.6195C51.2584 31.5284 52.5439 30.3656 52.5581 28.9154C52.5557 27.4286 51.1678 26.2159 49.444 26.2159ZM43.7773 28.9193C43.7773 26.1949 46.3057 24 49.444 24C52.5855 24 55.1107 26.2125 55.1107 28.9193V28.9273H55.1106C55.0888 31.5848 52.6791 33.7425 49.6434 33.8379C49.5739 33.8401 49.5044 33.8374 49.4355 33.8297C49.3666 33.8374 49.2971 33.8401 49.2276 33.8379C46.1935 33.7425 43.7773 31.5844 43.7773 28.9193Z" fill="white"/>
<path fill-rule="evenodd" clip-rule="evenodd" d="M47.5972 35.7806C50.0169 35.379 52.7758 35.7619 54.7815 37.0229L54.7837 37.0242C56.1546 37.8902 56.9983 39.1451 56.9983 40.544C56.9983 41.9426 56.1551 43.1972 54.7848 44.0631C52.7938 45.3262 50.0673 45.7079 47.6533 45.3239C47.0032 45.2205 46.5646 44.6373 46.6738 44.0213C46.7829 43.4053 47.3985 42.9897 48.0486 43.0931C49.995 43.4027 52.0743 43.0608 53.4573 42.1831L53.4595 42.1817C54.3326 41.6301 54.611 41.015 54.611 40.544C54.611 40.0732 54.3328 39.4585 53.4606 38.9071C52.0604 38.0273 49.9499 37.6866 48.0092 38.0087C47.3598 38.1165 46.7412 37.7051 46.6275 37.0898C46.5137 36.4745 46.9479 35.8884 47.5972 35.7806Z" fill="white"/>
<path fill-rule="evenodd" clip-rule="evenodd" d="M24.8907 28.9193C24.8907 26.2125 27.4158 24 30.5573 24C33.6956 24 36.224 26.1949 36.224 28.9193C36.224 31.5844 33.8078 33.7425 30.7737 33.8379C30.7042 33.8401 30.6347 33.8374 30.5658 33.8297C30.4969 33.8374 30.4274 33.8401 30.3579 33.8379C27.3222 33.7425 24.9126 31.5848 24.8907 28.9273L24.8906 28.9193H24.8907ZM27.4432 28.9154C27.4575 30.3656 28.7429 31.5284 30.3603 31.6195C30.4962 31.6091 30.6354 31.6091 30.7713 31.6195C32.3915 31.5283 33.6714 30.364 33.6714 28.9193C33.6714 27.4187 32.2859 26.2159 30.5573 26.2159C28.8335 26.2159 27.4457 27.4286 27.4432 28.9154Z" fill="white"/>
<path fill-rule="evenodd" clip-rule="evenodd" d="M26.5377 38.9071C27.9379 38.0273 30.0484 37.6866 31.9891 38.0087C32.6384 38.1165 33.257 37.7051 33.3708 37.0898C33.4845 36.4745 33.0504 35.8884 32.401 35.7806C29.9814 35.379 27.2224 35.7619 25.2167 37.0229L25.2167 37.0229L25.2146 37.0242C23.8437 37.8902 23 39.1451 23 40.544C23 41.9426 23.8432 43.1972 25.2135 44.0631C27.2044 45.3262 29.931 45.7079 32.3449 45.3239C32.9951 45.2205 33.4336 44.6373 33.3245 44.0213C33.2153 43.4053 32.5998 42.9897 31.9497 43.0931C30.0033 43.4027 27.924 43.0608 26.541 42.1831L26.5388 42.1817C25.6657 41.6301 25.3873 41.015 25.3873 40.544C25.3873 40.0732 25.6654 39.4584 26.5377 38.9071Z" fill="white"/>
<path fill-rule="evenodd" clip-rule="evenodd" d="M39.5265 37.1498C37.942 37.1498 36.6719 38.462 36.6719 40.099C36.6719 41.675 37.8451 42.9451 39.3303 43.0447C39.4567 43.0331 39.5861 43.0332 39.7123 43.0451C41.1829 42.958 42.368 41.6852 42.3811 40.0947C42.3788 38.4727 41.1066 37.1498 39.5265 37.1498ZM34.332 40.099C34.332 37.1269 36.6498 34.7324 39.5265 34.7324C42.4062 34.7324 44.7209 37.1461 44.7209 40.099V40.1076H44.7209C44.7009 42.9989 42.4977 45.3813 39.7008 45.465C39.6399 45.4668 39.5791 45.4637 39.5187 45.4558C39.4556 45.4641 39.3918 45.4671 39.3282 45.4647C36.5469 45.3606 34.332 43.0063 34.332 40.099Z" fill="white"/>
<path fill-rule="evenodd" clip-rule="evenodd" d="M40.0069 46.3604C41.8784 46.3604 43.8144 46.7996 45.3278 47.7506C46.7074 48.6175 47.5564 49.8736 47.5564 51.274C47.5564 52.6742 46.7077 53.9301 45.3286 54.797C43.8087 55.7548 41.8732 56.199 40.0009 56.199C38.1282 56.199 36.1925 55.7546 34.6725 54.7965C33.2937 53.9297 32.4453 52.6739 32.4453 51.274C32.4453 49.8736 33.2943 48.6175 34.6739 47.7506L34.6768 47.7488L34.6768 47.7488C36.1967 46.7997 38.1351 46.3604 40.0069 46.3604ZM36.0051 49.6356C35.1275 50.1875 34.8477 50.8028 34.8477 51.274C34.8477 51.7455 35.1278 52.3613 36.0065 52.9134L36.0079 52.9143C37.0505 53.5714 38.4941 53.9347 40.0009 53.9347C41.5076 53.9347 42.9512 53.5714 43.9938 52.9143L43.9952 52.9134C44.8739 52.3613 45.154 51.7455 45.154 51.274C45.154 50.8025 44.8739 50.1868 43.9952 49.6347C42.9621 48.9855 41.5188 48.6247 40.0069 48.6247C38.496 48.6247 37.0476 48.9851 36.0051 49.6356Z" fill="white"/>
</svg>
