<svg width="65" height="65" viewBox="0 0 65 65" fill="none" xmlns="http://www.w3.org/2000/svg">
<rect width="65" height="65" rx="32.5" fill="white"/>
<g clip-path="url(#clip0_159_4871)">
<path d="M21.8196 23.4001C23.2213 21.9981 25.1014 21.178 27.0826 21.1045C29.0638 21.031 30.9995 21.7095 32.5013 23.0037C34.0017 21.7116 35.9348 21.0339 37.9136 21.1064C39.8924 21.1788 41.7709 21.9959 43.1729 23.3943C44.5749 24.7926 45.3969 26.6689 45.4745 28.6475C45.5521 30.6261 44.8795 32.561 43.5913 34.0648L34.2086 43.4777C33.7776 43.9089 33.1994 44.1613 32.5901 44.1841C31.9808 44.207 31.3854 43.9987 30.9232 43.601L30.7903 43.4789L21.4088 34.0648C20.1213 32.5623 19.4483 30.6292 19.5245 28.6519C19.6007 26.6747 20.4203 24.7991 21.8196 23.4001ZM23.5282 25.1086C22.5401 26.097 21.9705 27.428 21.9376 28.8252C21.9048 30.2224 22.4112 31.5786 23.3518 32.6124L23.5282 32.7985L32.5001 41.7703L38.9078 35.3613L34.6364 31.0899L33.3556 32.3707C33.019 32.7074 32.6194 32.9746 32.1796 33.1569C31.7398 33.3392 31.2684 33.433 30.7923 33.4332C29.8308 33.4334 28.9086 33.0516 28.2286 32.3719C27.5486 31.6922 27.1664 30.7702 27.1662 29.8087C27.1659 28.8472 27.5477 27.925 28.2274 27.245L30.7673 24.7038C29.7565 23.8971 28.4913 23.477 27.1987 23.5189C25.9061 23.5607 24.6708 24.0618 23.7143 24.9322L23.5282 25.1086ZM33.7821 28.5258C34.0087 28.2993 34.316 28.172 34.6364 28.172C34.9568 28.172 35.2641 28.2993 35.4907 28.5258L40.6164 33.6516L41.4719 32.7985C42.4766 31.7945 43.0486 30.4373 43.0655 29.0171C43.0825 27.5968 42.543 26.2264 41.5626 25.1987C40.5821 24.1711 39.2385 23.5679 37.8191 23.5181C36.3996 23.4683 35.017 23.9758 33.967 24.9322L33.7821 25.1086L29.9372 28.9536C29.7277 29.1629 29.6024 29.4418 29.5851 29.7374C29.5677 30.0329 29.6594 30.3246 29.8429 30.557L29.9372 30.6621C30.1465 30.8716 30.4254 30.9969 30.721 31.0143C31.0166 31.0316 31.3082 30.9399 31.5406 30.7564L31.6458 30.6621L33.7821 28.5258Z" fill="#FF6B00"/>
</g>
<defs>
<clipPath id="clip0_159_4871">
<rect width="29" height="29" fill="white" transform="translate(18 18)"/>
</clipPath>
</defs>
</svg>
