<svg width="65" height="65" viewBox="0 0 65 65" fill="none" xmlns="http://www.w3.org/2000/svg">
<g id="icon_collect">
<rect width="65" height="65" rx="32.5" fill="white"/>
<g id="Group">
<g id="Group_2">
<path id="Vector" d="M42.1109 19H35.875H29.125H22.8891C20.7412 19 19 20.7412 19 22.8891V42.1108C19 44.2588 20.7412 46 22.8891 46H29.125C29.7463 46 30.25 45.4963 30.25 44.875C30.25 44.2537 29.7463 43.75 29.125 43.75H22.8891C21.9838 43.75 21.25 43.0162 21.25 42.1109V22.8891C21.25 21.9838 21.9838 21.25 22.8891 21.25H28V26.875C28 27.7735 29.0014 28.3095 29.749 27.811L32.5 25.9771L35.2509 27.8111C35.9986 28.3095 37 27.7735 37 26.875V21.25H42.1108C43.0161 21.25 43.75 21.9838 43.75 22.8892V26.875C43.75 27.4964 44.2536 28 44.875 28C45.4963 28 46 27.4963 46 26.875V22.8891C46 20.7412 44.2588 19 42.1109 19ZM34.75 24.7729L33.1241 23.689C32.7462 23.4371 32.2539 23.4371 31.876 23.689L30.25 24.7729V21.25H34.75V24.7729Z" fill="#FF6B00"/>
<path id="Vector_2" d="M39.25 37V34.75C39.25 34.1287 38.7463 33.625 38.125 33.625C37.5037 33.625 37 34.1287 37 34.75V37H34.75C34.1287 37 33.625 37.5037 33.625 38.125C33.625 38.7463 34.1287 39.25 34.75 39.25H37V41.5C37 42.1214 37.5037 42.625 38.125 42.625C38.7463 42.625 39.25 42.1214 39.25 41.5V39.25H41.5C42.1213 39.25 42.625 38.7464 42.625 38.125C42.625 37.5037 42.1213 37.0001 41.5 37.0001H39.25V37Z" fill="#FF6B00"/>
<path id="Vector_3" d="M38.125 30.25C33.7754 30.25 30.25 33.7755 30.25 38.125C30.25 42.4745 33.7754 46 38.125 46C42.4746 46 46 42.4746 46 38.125C46 33.7755 42.4745 30.25 38.125 30.25ZM38.125 43.75C35.018 43.75 32.5 41.2319 32.5 38.125C32.5 35.0181 35.018 32.5 38.125 32.5C41.2319 32.5 43.75 35.0181 43.75 38.125C43.7499 41.2319 41.2319 43.75 38.125 43.75Z" fill="#FF6B00"/>
</g>
</g>
</g>
</svg>
