<svg width="65" height="65" viewBox="0 0 65 65" fill="none" xmlns="http://www.w3.org/2000/svg">
<rect width="65" height="65" rx="32.5" fill="white"/>
<path d="M24.6762 19L17 32.5L24.6762 46H40.2992L48 32.5L40.3238 19H24.6762ZM39.1675 44.0364H25.8325L19.2635 32.5L25.8325 20.9636H39.1675L45.7365 32.5L39.1675 44.0364Z" fill="#FF6B00"/>
<path d="M32.5005 25.3813C28.564 25.3813 25.3656 28.5723 25.3656 32.4995C25.3656 36.4268 28.564 39.6177 32.5005 39.6177C36.437 39.6177 39.6354 36.4268 39.6354 32.4995C39.6354 28.5723 36.437 25.3813 32.5005 25.3813ZM32.5005 37.6541C29.6466 37.6541 27.3339 35.3468 27.3339 32.4995C27.3339 29.6523 29.6466 27.345 32.5005 27.345C35.3545 27.345 37.6672 29.6523 37.6672 32.4995C37.6672 35.3468 35.3545 37.6541 32.5005 37.6541Z" fill="#FF6B00"/>
</svg>
