<svg width="65" height="65" viewBox="0 0 65 65" fill="none" xmlns="http://www.w3.org/2000/svg">
<g id="icon_puzzle">
<rect width="65" height="65" rx="32.5" fill="white"/>
<path id="path4254" d="M40.2131 44C40.0866 43.9993 38.4393 43.9962 36.5946 43.9931C35.6204 43.9915 34.7137 43.9744 34.0007 43.9465C33.6443 43.9325 33.3369 43.916 33.0873 43.8965C32.8378 43.877 32.6878 43.8719 32.4569 43.8114C32.1794 43.7387 31.94 43.7524 31.5874 43.4071C31.4111 43.2345 31.2994 42.9645 31.27 42.7861C31.2407 42.6077 31.2496 42.4959 31.2534 42.3908C31.2665 42.0221 31.3706 41.8113 31.4907 41.5527C31.6109 41.2941 31.7657 41.0259 31.9489 40.7568C32.1983 40.3903 32.3023 40.152 32.3333 40.011C32.3643 39.87 32.3625 39.7945 32.2834 39.5746C32.2113 39.3741 32.1183 39.2611 31.8799 39.1368C31.6416 39.0125 31.2413 38.9104 30.6791 38.8984C29.9164 38.8822 29.3903 38.9859 29.1011 39.1229C28.8119 39.2598 28.7249 39.3678 28.6444 39.6397C28.5455 39.9739 28.5524 40.1224 28.6084 40.2917C28.6644 40.461 28.8171 40.7059 29.1761 41.0576C29.5205 41.3951 29.7155 41.8929 29.753 42.3627C29.772 42.6012 29.8582 42.8632 29.6107 43.2901C29.4869 43.5036 29.2769 43.6584 29.1283 43.7302C28.9798 43.8019 28.8744 43.8273 28.7738 43.854C28.4538 43.939 28.3975 43.9092 28.1552 43.9214C27.9129 43.9335 27.6049 43.9433 27.2489 43.9514C26.5369 43.9677 25.6359 43.9769 24.7428 43.9788C23.8497 43.9806 22.9661 43.9751 22.2879 43.9618C21.9488 43.9551 21.6624 43.9465 21.4424 43.9351C21.3325 43.9294 21.2407 43.9233 21.1535 43.9141C21.1099 43.9094 21.069 43.9047 21.0113 43.8937C20.9537 43.8827 20.9325 43.9467 20.6387 43.7398C20.412 43.5802 20.3812 43.4646 20.3473 43.3938C20.3134 43.323 20.3011 43.2805 20.2907 43.2451C20.2699 43.1741 20.2631 43.1324 20.256 43.0901C20.2417 43.0057 20.2332 42.9284 20.2244 42.8357C20.2067 42.6504 20.1911 42.4144 20.1757 42.1302C20.145 41.5617 20.1168 40.8084 20.0948 40.0083C20.0507 38.408 20.0286 36.6574 20.0698 35.7996C20.0833 35.5175 20.1134 35.2469 20.1567 35.0075C20.1784 34.8878 20.2024 34.7771 20.2374 34.6622C20.2724 34.5472 20.2659 34.4471 20.475 34.2057C20.6791 33.9701 21.0005 33.8211 21.2769 33.7921C21.5532 33.763 21.7872 33.8166 22.0001 33.8926C22.426 34.0446 22.8024 34.3034 23.2176 34.6528C23.9243 35.2476 24.0919 35.2811 24.5788 35.1522C25.1148 35.0103 25.5992 34.4627 25.8198 33.6963C26.0403 32.9298 25.9534 32.038 25.5382 31.4245C25.3237 31.1074 24.925 30.7851 24.5457 30.6107C24.2087 30.4557 23.9451 30.4623 23.8833 30.4648C23.8328 30.4996 23.7562 30.5505 23.6906 30.613C23.5442 30.7526 23.3619 30.9451 23.2004 31.1357C22.6773 31.753 22.3019 32.2557 21.4676 32.3018C21.0504 32.3248 20.5771 32.0523 20.3649 31.7439C20.1528 31.4354 20.0794 31.1285 20.0274 30.792C19.9907 30.5545 20.0017 30.4394 20.0011 30.1931C20.0006 29.9468 20.0046 29.6363 20.0122 29.28C20.0273 28.5673 20.0564 27.6739 20.0916 26.7919C20.1269 25.9098 20.1682 25.0407 20.2081 24.3751C20.2281 24.0423 20.2475 23.7617 20.2668 23.5472C20.2764 23.44 20.2855 23.3509 20.2973 23.2669C20.3031 23.225 20.3091 23.1858 20.3211 23.1311C20.333 23.0765 20.2691 23.0631 20.4758 22.7742C20.6637 22.5117 20.7842 22.5022 20.8547 22.4726C20.9251 22.443 20.9641 22.4339 20.9969 22.4259C21.0624 22.4097 21.0988 22.4052 21.136 22.4003C21.2105 22.3904 21.2779 22.3851 21.359 22.3797C21.5214 22.3689 21.7292 22.3604 21.9815 22.3534C22.486 22.3395 23.1619 22.3321 23.8989 22.334C25.6786 22.3387 26.7449 22.323 27.3879 22.2675C28.0309 22.212 28.1777 22.1514 28.3903 22.0272C28.769 21.806 28.7811 21.7244 28.7881 21.601C28.795 21.4776 28.7013 21.1108 28.2892 20.5651C28.0395 20.2346 27.8596 19.9857 27.723 19.6835C27.5864 19.3813 27.5332 19.0592 27.514 18.7664C27.5921 17.801 27.82 17.0818 28.5705 16.5904C28.849 16.4081 29.0395 16.3639 29.3024 16.2856C29.5653 16.2072 29.8585 16.1376 30.1505 16.0882H30.1506C31.8577 15.7993 33.4899 16.2067 34.2363 17.5084C34.4728 17.9209 34.5878 18.4647 34.4861 18.962C34.3844 19.4592 34.1351 19.8829 33.8 20.3411C33.2809 21.0508 33.1563 21.7591 33.1408 21.6657V21.6659C33.1544 21.7489 33.1612 21.7895 33.3397 21.9097C33.5183 22.03 33.8753 22.1744 34.3997 22.269C34.2694 22.2455 34.4687 22.2735 34.6523 22.2818C34.836 22.2901 35.0873 22.2988 35.3806 22.3071C35.9673 22.3238 36.7239 22.3393 37.479 22.3511C38.2341 22.3629 38.9888 22.3708 39.5716 22.3724C39.863 22.3732 40.112 22.3724 40.2925 22.3698C40.4731 22.3672 40.6909 22.3391 40.5222 22.3667C40.8673 22.3102 41.2209 22.5265 41.3435 22.6703C41.4661 22.814 41.4928 22.9049 41.5181 22.9753C41.5686 23.1161 41.577 23.1947 41.5896 23.2855C41.6148 23.4671 41.6268 23.6681 41.637 23.9397C41.6575 24.4827 41.6625 25.2855 41.6555 26.4126C41.6437 28.3106 41.7173 29.5046 41.8689 30.1261C42.0205 30.7476 42.0379 30.7089 42.3243 30.801C42.4889 30.854 42.4629 30.8566 42.6199 30.8028C42.7769 30.7491 43.1009 30.5715 43.6051 30.2171C44.1094 29.8627 44.5544 29.599 45.0977 29.5197C45.6409 29.4403 46.1795 29.6217 46.6131 29.8817C47.4718 30.3968 47.8375 31.3991 47.9647 32.6526C48.0931 33.919 47.8807 35.1148 47.1746 35.9775C46.8306 36.3976 46.2616 36.7159 45.6962 36.8086C45.3936 36.8582 44.9867 36.8971 44.6025 36.756C44.2182 36.615 43.9501 36.413 43.4622 36.08C42.9053 35.7 42.5509 35.5476 42.4289 35.526C42.3069 35.5044 42.3591 35.48 42.154 35.638C41.908 35.8274 41.8589 35.8456 41.7461 36.5486C41.6333 37.2517 41.5876 38.5251 41.5773 40.6719C41.5742 41.3082 41.5597 41.8957 41.5379 42.3431C41.527 42.5668 41.5147 42.7534 41.4988 42.908C41.4908 42.9853 41.4831 43.0522 41.4678 43.1326C41.4601 43.1728 41.452 43.215 41.4295 43.2842C41.407 43.3535 41.4417 43.4504 41.1615 43.6951C40.9034 43.9205 40.7797 43.9164 40.6408 43.9499C40.5018 43.9835 40.3677 44.0008 40.2131 44ZM40.1934 42.2441C40.1949 42.2441 40.2204 42.2441 40.2217 42.2441C40.214 42.2441 40.2371 42.2416 40.2328 42.2427C40.2306 42.2434 40.224 42.233 40.1934 42.2441ZM39.7938 42.2433C39.8135 41.8343 39.8279 41.2722 39.8308 40.6634C39.8412 38.499 39.8719 37.2041 40.022 36.269C40.172 35.334 40.5722 34.6443 41.0919 34.244C41.5192 33.915 42.1435 33.6926 42.7319 33.7968C43.3202 33.9009 43.8144 34.1983 44.4429 34.6271C45.1753 35.1578 45.4965 35.2722 45.8261 34.8618C46.0969 34.531 46.3216 33.7614 46.2272 32.8307C46.1228 31.8008 45.9165 31.5086 45.7184 31.3898C45.4638 31.2371 45.4332 31.2451 45.3488 31.2574C45.2644 31.2697 45.0233 31.3628 44.6057 31.6563C44.0557 32.0429 43.6423 32.3078 43.1825 32.4651C42.7227 32.6224 42.2003 32.6048 41.7921 32.4735C41.0371 32.2306 40.4045 31.495 40.1726 30.5444C39.9407 29.5938 39.897 28.3403 39.909 26.4016C39.9156 25.3417 39.9088 24.6188 39.8926 24.127C39.7806 24.1273 39.6958 24.1286 39.5668 24.1283C38.9723 24.1267 38.2128 24.1187 37.4519 24.1068C36.691 24.0949 35.9295 24.0793 35.3313 24.0623C35.0321 24.0538 34.7744 24.0449 34.5739 24.0359C34.3734 24.0268 34.3136 24.0375 34.0912 23.9974C33.4171 23.8758 32.8452 23.6902 32.3675 23.3684C31.8898 23.0466 31.5127 22.5328 31.4174 21.9512C31.2559 20.9654 31.7405 20.1929 32.3931 19.3008C32.6546 18.9432 32.7555 18.7061 32.7755 18.6084C32.7954 18.5107 32.8036 18.5255 32.7232 18.3853C32.4654 17.9357 31.7234 17.6027 30.4406 17.8197H30.4404C30.2281 17.8557 29.9883 17.9125 29.7987 17.969C29.609 18.0255 29.4275 18.1248 29.5237 18.0618C29.1652 18.3462 29.1473 18.5881 29.3129 18.9569C29.3483 19.0351 29.4516 19.2006 29.6801 19.5033C30.2189 20.2167 30.5761 20.9172 30.5318 21.7006C30.4875 22.4841 29.9463 23.1491 29.2679 23.5454C28.8432 23.7936 28.3088 23.9505 27.5373 24.017C26.7659 24.0836 25.6845 24.0946 23.8943 24.0899C23.172 24.088 22.508 24.0955 22.0295 24.1087C22.0071 24.1094 21.9991 24.1103 21.9775 24.1109C21.9687 24.2372 21.9607 24.3268 21.9514 24.481C21.9126 25.1272 21.8716 25.9892 21.8367 26.8624C21.8018 27.7356 21.773 28.6216 21.7582 29.3173C21.7514 29.6378 21.7486 29.9038 21.7484 30.1204C21.7901 30.0777 21.8273 30.0485 21.8709 29.9971C22.0745 29.7567 22.2896 29.529 22.489 29.3389C22.6884 29.1488 22.7508 29.0213 23.1436 28.8508C23.8865 28.5284 24.6143 28.7114 25.2721 29.0138C25.9298 29.3162 26.5457 29.7917 26.9823 30.4368C27.75 31.5713 27.8459 32.9731 27.4974 34.1842C27.1489 35.3954 26.3123 36.509 25.0235 36.8502C24.0406 37.1104 23.0073 36.7658 22.0965 35.9992C21.9938 35.9128 21.9114 35.8593 21.8236 35.7974C21.8214 35.8293 21.8157 35.8525 21.8142 35.8843C21.7805 36.5846 21.7972 38.3811 21.8407 39.9596C21.8624 40.7488 21.8903 41.4927 21.9196 42.0348C21.9233 42.103 21.9268 42.1326 21.9305 42.1941C22.0629 42.1982 22.1592 42.2031 22.3223 42.2063C22.9799 42.2193 23.8557 42.2248 24.7393 42.2229C25.6228 42.2211 26.5158 42.2119 27.2091 42.196C27.4573 42.1903 27.6387 42.183 27.8243 42.1758C27.4272 41.7655 27.1161 41.3446 26.9511 40.8455C26.7675 40.29 26.8064 39.6932 26.9704 39.139C27.1764 38.4429 27.6933 37.8486 28.357 37.5343C29.0207 37.22 29.7965 37.1234 30.7161 37.143C31.4586 37.1588 32.1173 37.2826 32.684 37.5782C33.2507 37.8737 33.7089 38.3744 33.9258 38.9773C34.0824 39.4125 34.1437 39.913 34.0386 40.3904C33.9335 40.8678 33.7021 41.2902 33.3901 41.7484C33.2942 41.8895 33.2297 42.0151 33.1635 42.1396C33.1989 42.1434 33.1838 42.1427 33.2228 42.1458C33.437 42.1626 33.7273 42.1785 34.0688 42.1919C34.7518 42.2186 35.642 42.2357 36.5974 42.2372C38.2245 42.2399 39.3601 42.2421 39.7938 42.2433ZM21.411 42.173C21.3677 42.1611 21.3517 42.1677 21.3413 42.1683C21.3529 42.1695 21.3899 42.1714 21.411 42.173ZM21.9002 35.2086C21.9158 35.1751 21.9102 35.167 21.9074 35.1761C21.9063 35.1798 21.9021 35.2012 21.9002 35.2086ZM22.0194 23.5813C22.033 23.5374 22.0263 23.5218 22.0268 23.5119C22.0252 23.5231 22.0217 23.5608 22.0194 23.5813Z" fill="#FF6B00"/>
</g>
</svg>
