<svg width="80" height="80" viewBox="0 0 80 80" fill="none" xmlns="http://www.w3.org/2000/svg">
<rect width="80" height="80" rx="15" fill="#CAA151"/>
<path d="M51.0296 39.5002C49.6662 38.3574 47.933 37.7508 46.1546 37.794H34.7227C34.2015 37.8071 33.683 37.715 33.1982 37.5231C32.7134 37.3311 32.2723 37.0433 31.9014 36.6769C31.5304 36.3105 31.2372 35.8731 31.0393 35.3907C30.8414 34.9083 30.7429 34.391 30.7496 33.8696C30.7369 33.6667 30.7369 33.4632 30.7496 33.2602C30.9033 32.3286 31.3918 31.4852 32.1233 30.8883C32.8549 30.2913 33.7792 29.982 34.7227 30.0184H45.984C46.9026 30.0176 47.7916 30.3431 48.4925 30.9368C49.1934 31.5306 49.6606 32.354 49.8108 33.2602H53.4671C53.314 31.3808 52.4593 29.6277 51.0728 28.3496C49.6863 27.0715 47.8697 26.362 45.984 26.3621H42.1327V20.7559H39.0858V26.3621H34.7227C32.837 26.362 31.0203 27.0715 29.6339 28.3496C28.2474 29.6277 27.3926 31.3808 27.2396 33.2602C27.2274 33.4632 27.2274 33.6667 27.2396 33.8696C27.2396 34.8523 27.4331 35.8254 27.8092 36.7333C28.1853 37.6412 28.7365 38.4661 29.4313 39.161C30.8347 40.5643 32.7381 41.3527 34.7227 41.3527H46.2765C46.7936 41.3397 47.308 41.4304 47.7896 41.6193C48.2711 41.8082 48.7099 42.0916 49.0802 42.4528C49.4505 42.814 49.7447 43.2457 49.9455 43.7224C50.1464 44.199 50.2498 44.7111 50.2496 45.2284C50.2749 45.504 50.2749 45.7814 50.2496 46.0571C50.0561 46.9148 49.5767 47.6811 48.8901 48.2303C48.2036 48.7796 47.3507 49.0791 46.4715 49.0796H35.0152C34.136 49.0791 33.2831 48.7796 32.5966 48.2303C31.91 47.6811 31.4306 46.9148 31.2371 46.0571H27.5565C27.7659 47.8885 28.6419 49.5789 30.0174 50.8061C31.3929 52.0332 33.1718 52.7115 35.0152 52.7115H39.0858V58.2446H42.1327V52.7115H46.2765C48.1198 52.7115 49.8988 52.0332 51.2743 50.8061C52.6498 49.5789 53.5257 47.8885 53.7352 46.0571V45.2284C53.7323 44.1335 53.4883 43.0527 53.0207 42.0628C52.5531 41.0728 51.8733 40.1979 51.0296 39.5002Z" fill="white"/>
</svg>
