<svg width="65" height="65" viewBox="0 0 65 65" fill="none" xmlns="http://www.w3.org/2000/svg">
<g id="icon_setting">
<rect width="65" height="65" rx="32.5" fill="white"/>
<path id="Union" fill-rule="evenodd" clip-rule="evenodd" d="M26.2472 22.4471L20.502 19L18.832 20.67L22.2791 26.4152L23.7724 24.9219L28.9229 30.0724L17.9588 41.2002L17 44.4875L18.5451 45.9417L21.8356 45.1275L32.9991 34.1486L34.5393 35.6887L33.1829 37.0451L42.7491 46.6113L46.4414 42.9189L36.8752 33.3528L35.5208 34.7072L33.9888 33.1753L37.1593 30.0571H38.6825C39.9191 30.0571 41.2564 29.7475 42.2796 28.7243C43.3029 27.701 43.8949 26.0814 43.8949 23.7152V22.6234L39.7398 24.5711L38.6005 23.3961L40.4181 19.2092L39.3604 19.2091C36.9965 19.2089 35.3772 19.7925 34.3533 20.8079C33.3282 21.8245 33.0184 23.1561 33.0184 24.393V25.9158L29.8971 29.0837L24.7539 23.9404L26.2472 22.4471ZM20.7172 20.7478L20.5798 20.8851L22.5547 24.1766L24.0086 22.7227L20.7172 20.7478ZM44.4785 42.9189L36.8752 35.3157L35.1458 37.0451L42.7491 44.6483L44.4785 42.9189ZM34.4064 24.393C34.4064 23.3706 34.6614 22.4572 35.3307 21.7935C35.8797 21.249 36.787 20.7938 38.2808 20.647L36.9573 23.6955L39.4326 26.2481L42.4524 24.8325C42.2997 26.3019 41.8429 27.198 41.2981 27.7428C40.627 28.4139 39.7051 28.6691 38.6825 28.6691H36.5911L21.1333 43.8714L18.9458 44.4127L18.5707 44.0596L19.1933 41.925L34.4064 26.4848V24.393Z" fill="#FF6B00"/>
</g>
</svg>
