<svg width="20" height="20" viewBox="0 0 20 20" fill="none" xmlns="http://www.w3.org/2000/svg">
<path d="M5.74509 4.17822H1V18.0002H5.74509V4.17822Z" fill="#BDA99B"/>
<path d="M17.8554 6.27223V2H10.6591L7.95613 4.72535V6.27223H6.89258V17.9999H19.0007V6.27223H17.8554ZM9.59237 5.45339V5.42181L11.3344 3.67539H11.3993H16.1646H16.2191V10.1256H16.1646H9.59237V5.45339ZM10.5741 16.5759H8.69244V14.8167H10.5741V16.5759ZM10.5741 13.3926H8.69244V11.6335H10.5741V13.3926ZM13.8466 16.5759H11.9649V14.8167H13.8466V16.5759ZM13.8466 13.3926H11.9649V11.6335H13.8466V13.3926ZM17.1191 16.5759H15.2374V14.8167H17.1191V16.5759ZM17.1191 13.3926H15.2374V11.6335H17.1191V13.3926Z" fill="#BDA99B"/>
</svg>
