<svg width="50" height="50" viewBox="0 0 50 50" fill="none" xmlns="http://www.w3.org/2000/svg">
<path fill-rule="evenodd" clip-rule="evenodd" d="M17.5644 15.44C16.9778 14.8533 16.0266 14.8533 15.44 15.44C14.8533 16.0266 14.8533 16.9778 15.44 17.5644L22.8756 25.0001L15.4401 32.4357C14.8535 33.0223 14.8535 33.9735 15.4401 34.5601C16.0268 35.1468 16.9779 35.1467 17.5646 34.5601L25.0001 27.1246L32.4354 34.5599C33.022 35.1466 33.9732 35.1466 34.5598 34.5599C35.1464 33.9733 35.1464 33.0222 34.5598 32.4355L27.1245 25.0001L34.56 17.5646C35.1466 16.9779 35.1466 16.0268 34.56 15.4401C33.9733 14.8535 33.0222 14.8535 32.4355 15.4401L25.0001 22.8757L17.5644 15.44Z" fill="#7F7F7F"/>
</svg>
