<svg width="65" height="65" viewBox="0 0 65 65" fill="none" xmlns="http://www.w3.org/2000/svg">
<g id="icon_listening">
<rect width="65" height="65" rx="32.5" fill="white"/>
<path id="Vector" d="M42.9954 29.922C44.0041 30.4989 44.822 31.355 45.3493 32.3857C45.8766 33.4165 46.0905 34.5774 45.965 35.7268C45.8396 36.8763 45.3801 37.9647 44.6427 38.8592C43.9052 39.7537 42.9217 40.4157 41.812 40.7645C41.4198 42.5325 40.4315 44.1145 39.0108 45.2484C37.59 46.3824 35.822 47.0003 33.9995 47H31.0008C30.7357 47 30.4815 46.8954 30.2941 46.7092C30.1066 46.523 30.0013 46.2704 30.0013 46.0071C30.0013 45.7438 30.1066 45.4912 30.2941 45.305C30.4815 45.1188 30.7357 45.0142 31.0008 45.0142H33.9995C35.2402 45.0145 36.4504 44.6328 37.4636 43.9215C38.4768 43.2102 39.2431 42.2044 39.6569 41.0426H38.9972C38.7321 41.0426 38.4779 40.9379 38.2905 40.7517C38.103 40.5655 37.9977 40.313 37.9977 40.0496V30.1206C37.9977 29.8572 38.103 29.6047 38.2905 29.4185C38.4779 29.2323 38.7321 29.1277 38.9972 29.1277H39.9968C40.3207 29.1277 40.6385 29.1535 40.9504 29.2031C40.7253 27.0006 39.6853 24.9595 38.0318 23.4753C36.3783 21.991 34.229 21.1693 32.0004 21.1693C29.7718 21.1693 27.6225 21.991 25.969 23.4753C24.3155 24.9595 23.2754 27.0006 23.0504 29.2031C23.3658 29.1529 23.6846 29.1277 24.004 29.1277H25.0035C25.2686 29.1277 25.5229 29.2323 25.7103 29.4185C25.8978 29.6047 26.0031 29.8572 26.0031 30.1206V40.0496C26.0031 40.313 25.8978 40.5655 25.7103 40.7517C25.5229 40.9379 25.2686 41.0426 25.0035 41.0426H24.004C22.6825 41.044 21.3976 40.6119 20.3488 39.8133C19.3 39.0148 18.5461 37.8945 18.2042 36.6265C17.8623 35.3586 17.9516 34.0139 18.4581 32.8015C18.9646 31.5891 19.8601 30.5769 21.0053 29.922C21.0053 27.0253 22.1637 24.2472 24.2257 22.199C26.2877 20.1507 29.0843 19 32.0004 19C34.9165 19 37.7131 20.1507 39.7751 22.199C41.837 24.2472 42.9954 27.0253 42.9954 29.922ZM24.004 31.1135C22.9436 31.1135 21.9266 31.5319 21.1768 32.2767C20.427 33.0216 20.0058 34.0318 20.0058 35.0851C20.0058 36.1385 20.427 37.1486 21.1768 37.8935C21.9266 38.6383 22.9436 39.0567 24.004 39.0567V31.1135ZM43.995 35.0851C43.995 34.0318 43.5738 33.0216 42.824 32.2767C42.0741 31.5319 41.0572 31.1135 39.9968 31.1135V39.0567C41.0572 39.0567 42.0741 38.6383 42.824 37.8935C43.5738 37.1486 43.995 36.1385 43.995 35.0851Z" fill="#FF6B00"/>
</g>
</svg>
