<svg width="65" height="65" viewBox="0 0 65 65" fill="none" xmlns="http://www.w3.org/2000/svg">
<rect width="65" height="65" rx="32.5" fill="white"/>
<path d="M24.8427 37.859H21.359V21.359H42.5737V34.2915H44.9295V19H19V40.2147H24.8427V37.859ZM22.5353 42.5705H34.3205V44.9263H22.5353V42.5705Z" fill="#FF6B00"/>
<path d="M39.7706 34.7137C40.8019 31.8068 40.1638 28.4424 37.8403 26.1156C36.2322 24.5075 34.1245 23.7051 32.0201 23.7051C30.2799 23.7051 28.5364 24.2529 27.0734 25.3486L32.0072 30.2825L30.3411 31.9486L25.404 27.0147C22.9838 30.2471 23.232 34.8458 26.171 37.7816C27.7791 39.3897 29.8835 40.1922 31.9911 40.1922C32.9322 40.1922 33.8732 40.0343 34.7691 39.7152L40.3378 45.284L45.3394 40.2824L39.7706 34.7137ZM36.4352 38.0491L35.3814 36.9953L33.9795 37.4948C33.3414 37.7204 32.6711 37.8364 31.9911 37.8364C30.4217 37.8364 28.9457 37.2273 27.8371 36.1188C26.4997 34.7813 25.9325 32.9122 26.1807 31.1301L28.6718 33.618L30.3379 35.2841L32.004 33.618L33.6701 31.9519L35.3363 30.2857L33.6734 28.6164L31.179 26.1221C31.4562 26.0834 31.7365 26.0641 32.0201 26.0641C33.5896 26.0641 35.0655 26.6764 36.1741 27.785C37.7694 29.3802 38.3108 31.7907 37.5502 33.9273L37.0507 35.3292L38.1045 36.383L42.0072 40.2856L40.341 41.9518L36.4352 38.0491Z" fill="#FF6B00"/>
</svg>
