<svg width="65" height="65" viewBox="0 0 65 65" fill="none" xmlns="http://www.w3.org/2000/svg">
<g id="icon_helping">
<rect width="65" height="65" rx="32.5" fill="white"/>
<path id="Union" fill-rule="evenodd" clip-rule="evenodd" d="M22.9553 19.1621C23.2435 18.946 23.6397 18.946 23.9279 19.1621L26.2434 20.8988C26.4475 21.0518 26.5676 21.292 26.5676 21.5471V24.4416C26.5676 24.7126 26.4322 24.9656 26.2067 25.1159L24.9027 25.9853L28.5223 28.3984C28.7478 28.5487 28.8832 28.8018 28.8832 29.0727V32.8936H33.0508V31.3882C33.0508 31.1172 33.1862 30.8642 33.4117 30.7138L37.0313 28.3007L35.7272 27.4314C35.5018 27.2811 35.3664 27.028 35.3664 26.757V23.8626C35.3664 23.6075 35.4865 23.3673 35.6905 23.2142L38.0061 21.4775C38.2943 21.2614 38.6905 21.2614 38.9787 21.4775L41.2942 23.2142C41.4983 23.3673 41.6184 23.6075 41.6184 23.8626V26.757C41.6184 27.028 41.483 27.2811 41.2575 27.4314L39.9534 28.3007L43.5731 30.7138C43.7986 30.8642 43.934 31.1172 43.934 31.3882V32.8936H45.439C45.8866 32.8936 46.2494 33.2564 46.2494 33.704C46.2494 34.1516 45.8866 34.5145 45.439 34.5145H28.8832V37.1773C28.8832 37.4842 28.7098 37.7649 28.4352 37.9021L26.5676 38.8359V46.4396C26.5676 46.8871 26.2048 47.25 25.7572 47.25C25.3096 47.25 24.9467 46.8871 24.9467 46.4396V38.335C24.9467 38.0281 25.1202 37.7474 25.3947 37.6102L27.2623 36.6764V33.7349C27.2619 33.7246 27.2617 33.7143 27.2617 33.704C27.2617 33.6937 27.2619 33.6834 27.2623 33.6731V29.5065L23.4416 26.9594L19.6209 29.5065V36.6764L21.4885 37.6102C21.763 37.7474 21.9365 38.0281 21.9365 38.335V46.4396C21.9365 46.8871 21.5736 47.25 21.126 47.25C20.6784 47.25 20.3156 46.8871 20.3156 46.4396V38.8359L18.448 37.9021C18.1734 37.7649 18 37.4842 18 37.1773V29.0727C18 28.8018 18.1354 28.5487 18.3609 28.3984L21.9805 25.9853L20.6765 25.1159C20.451 24.9656 20.3156 24.7126 20.3156 24.4416V21.5471C20.3156 21.292 20.4357 21.0518 20.6398 20.8988L22.9553 19.1621ZM42.3131 32.8936V31.8219L38.4924 29.2748L34.6717 31.8219V32.8936H42.3131ZM23.4416 25.0113L24.9467 24.0079V21.9524L23.4416 20.8235L21.9365 21.9524V24.0079L23.4416 25.0113ZM38.4924 27.3267L39.9975 26.3233V24.2678L38.4924 23.1389L36.9873 24.2678V26.3233L38.4924 27.3267Z" fill="#FF6B00"/>
</g>
</svg>
