<svg width="65" height="65" viewBox="0 0 65 65" fill="none" xmlns="http://www.w3.org/2000/svg">
<rect width="65" height="65" rx="32.5" fill="white"/>
<g clip-path="url(#clip0_159_4862)">
<path d="M32.4994 28.9077C30.5189 28.9077 28.9076 30.519 28.9076 32.4995C28.9076 34.4801 30.5189 36.0914 32.4994 36.0914C34.48 36.0914 36.0912 34.4801 36.0912 32.4995C36.0912 30.519 34.4799 28.9077 32.4994 28.9077ZM32.4994 34.4022C31.4503 34.4022 30.5967 33.5487 30.5967 32.4995C30.5967 31.4504 31.4503 30.5969 32.4994 30.5969C33.5486 30.5969 34.4021 31.4504 34.4021 32.4995C34.4021 33.5486 33.5485 34.4022 32.4994 34.4022Z" fill="#FF6B00"/>
<path d="M41.8089 29.9041C41.6518 30.0612 41.5614 30.2791 41.5614 30.5012C41.5614 30.7234 41.6518 30.9412 41.8089 31.0984C41.9668 31.2563 42.1839 31.3458 42.406 31.3458C42.6281 31.3458 42.846 31.2563 43.0031 31.0984C43.161 30.9412 43.2506 30.7234 43.2506 30.5012C43.2506 30.2791 43.1611 30.062 43.0031 29.9041C42.846 29.747 42.6289 29.6566 42.406 29.6566C42.1839 29.6566 41.9659 29.747 41.8089 29.9041Z" fill="#FF6B00"/>
<path d="M34.4419 41.7053C34.2198 41.7053 34.002 41.7957 33.8448 41.9528C33.6877 42.11 33.5974 42.3278 33.5974 42.5499C33.5974 42.7721 33.6878 42.9899 33.8448 43.1471C34.0027 43.305 34.2198 43.3945 34.4419 43.3945C34.6641 43.3945 34.8819 43.3051 35.0391 43.1471C35.1969 42.9899 35.2865 42.7721 35.2865 42.5499C35.2865 42.3278 35.197 42.1107 35.0391 41.9528C34.8819 41.7957 34.6648 41.7053 34.4419 41.7053Z" fill="#FF6B00"/>
<path d="M37.7671 27.2321C36.5563 26.0212 35.2877 24.925 34.0042 23.972C35.0379 23.3414 36.0627 22.8229 37.0532 22.4353C39.5828 21.4456 41.5961 21.4405 42.5774 22.4218C43.5763 23.4207 43.5542 25.4773 42.5169 28.0644C42.3433 28.4973 42.5535 28.9891 42.9865 29.1626C43.4195 29.3363 43.9112 29.1262 44.0847 28.6931C45.4049 25.4007 45.2937 22.7493 43.7719 21.2273C42.2726 19.7281 39.6679 19.5982 36.4377 20.8623C35.1576 21.3632 33.8293 22.062 32.4995 22.9252C31.1697 22.062 29.8415 21.3632 28.5612 20.8623C25.3313 19.5985 22.7266 19.728 21.2272 21.2274C19.7278 22.7267 19.5981 25.3314 20.8621 28.5615C21.363 29.8417 22.0619 31.17 22.9251 32.4997C22.0618 33.8295 21.363 35.1577 20.862 36.438C19.5981 39.6681 19.7277 42.2726 21.2271 43.7721C22.0439 44.5889 23.1884 44.9991 24.5837 44.9991C25.7496 44.9991 27.0909 44.7125 28.5612 44.1372C31.5656 42.9615 34.8351 40.6993 37.767 37.7673C38.9745 36.5598 40.0669 35.2978 41.0266 34.0035C41.6575 35.0375 42.1762 36.0626 42.5639 37.0535C43.5537 39.5831 43.5587 41.5965 42.5774 42.5777C41.5787 43.5765 39.522 43.5544 36.9348 42.5172C36.5018 42.3437 36.0102 42.5539 35.8366 42.9868C35.663 43.4198 35.8733 43.9114 36.3062 44.085C37.8298 44.6958 39.2158 45.0002 40.4164 45.0001C41.8103 45.0001 42.9544 44.5896 43.772 43.772C45.2713 42.2726 45.4009 39.6679 44.137 36.4379C42.9612 33.4335 40.699 30.1641 37.7671 27.2321ZM22.4351 27.9459C21.4453 25.4164 21.4403 23.403 22.4215 22.4218C23.4026 21.4406 25.4162 21.4456 27.9456 22.4353C28.9362 22.8229 29.961 23.3414 30.9947 23.972C29.7112 24.925 28.4427 26.0213 27.2319 27.2322C26.021 28.443 24.9248 29.7115 23.9718 30.995C23.3411 29.9613 22.8227 28.9365 22.4351 27.9459ZM27.9457 42.5641C25.4161 43.5538 23.4028 43.5589 22.4215 42.5777C21.4403 41.5965 21.4453 39.583 22.4351 37.0535C22.8227 36.063 23.3411 35.0381 23.9718 34.0045C24.9248 35.288 26.021 36.5565 27.232 37.7674C28.4394 38.9748 29.7015 40.0672 30.9957 41.0269C29.9616 41.6577 28.9365 42.1764 27.9457 42.5641ZM36.5726 36.5729C35.2613 37.8842 33.8845 39.0511 32.5019 40.0327C31.0998 39.0389 29.7309 37.8774 28.4264 36.5729C27.1144 35.2609 25.9468 33.8832 24.9648 32.4997C25.9468 31.1163 27.1143 29.7386 28.4263 28.4266C29.7384 27.1146 31.116 25.947 32.4995 24.965C33.883 25.947 35.2607 27.1146 36.5728 28.4265C37.884 29.7378 39.0509 31.1147 40.0326 32.4973C39.0387 33.8994 37.8772 35.2684 36.5726 36.5729Z" fill="#FF6B00"/>
</g>
<defs>
<clipPath id="clip0_159_4862">
<rect width="25" height="25" fill="white" transform="translate(20 20)"/>
</clipPath>
</defs>
</svg>
