<svg width="65" height="65" viewBox="0 0 65 65" fill="none" xmlns="http://www.w3.org/2000/svg">
<g id="icon_phone">
<rect width="65" height="65" rx="32.5" fill="white"/>
<path id="Vector" d="M37.5242 37.766L38.1548 37.1295L36.6904 35.6346L36.0599 36.2711L37.5242 37.766ZM40.2726 36.8629L42.9177 38.3225L43.9096 36.4705L41.2645 35.0109L40.2726 36.8629ZM43.4269 41.2235L41.4601 43.2086L42.9244 44.7035L44.8912 42.7184L43.4269 41.2235ZM40.2617 43.8477C38.2543 44.0376 33.0607 43.8684 27.4376 38.1929L25.9732 39.6878C32.1095 45.8812 37.9498 46.1836 40.4544 45.9467L40.2617 43.8477ZM27.4376 38.1929C22.0776 32.783 21.1897 28.2329 21.0792 26.2589L19.0057 26.3785C19.1448 28.863 20.2442 33.9055 25.9732 39.6878L27.4376 38.1929ZM29.3417 29.5073L29.7388 29.1065L28.2745 27.6116L27.8774 28.0124L29.3417 29.5073ZM30.0549 23.9976L28.3091 21.6304L26.6466 22.8937L28.3923 25.261L30.0549 23.9976ZM22.4373 21.1152L20.2642 23.3085L21.7285 24.8034L23.9016 22.61L22.4373 21.1152ZM28.6096 28.7598C27.8774 28.0124 27.8764 28.0134 27.8754 28.0144C27.8751 28.0147 27.8741 28.0158 27.8734 28.0165C27.8721 28.0178 27.8707 28.0192 27.8693 28.0207C27.8665 28.0236 27.8636 28.0266 27.8606 28.0298C27.8546 28.0361 27.8482 28.0429 27.8416 28.0503C27.8282 28.065 27.8135 28.0818 27.7978 28.1008C27.7665 28.1389 27.7309 28.1857 27.6935 28.2417C27.6186 28.354 27.5369 28.5024 27.4676 28.6891C27.3262 29.07 27.2504 29.5722 27.3454 30.194C27.5313 31.41 28.3563 33.0163 30.4698 35.1494L31.9341 33.6545C29.9563 31.6583 29.4851 30.4435 29.3976 29.8708C29.356 29.5983 29.3992 29.4641 29.4111 29.4324C29.4183 29.4127 29.4217 29.4107 29.4129 29.4241C29.4084 29.4307 29.4011 29.441 29.3896 29.4548C29.3839 29.4617 29.3772 29.4696 29.3693 29.4783C29.3652 29.4827 29.3611 29.4873 29.3564 29.4921C29.3542 29.4945 29.3518 29.497 29.3493 29.4995C29.3481 29.5008 29.3468 29.5021 29.3456 29.5033C29.345 29.504 29.3441 29.505 29.3436 29.5053C29.3427 29.5063 29.3417 29.5073 28.6096 28.7598ZM30.4698 35.1494C32.584 37.2832 34.1738 38.1136 35.3738 38.3006C35.987 38.396 36.4814 38.3198 36.8564 38.178C37.0403 38.1084 37.1868 38.0265 37.2976 37.9512C37.3529 37.9135 37.3992 37.8777 37.4367 37.8461C37.4555 37.8303 37.4721 37.8156 37.4867 37.8021C37.494 37.7953 37.5008 37.789 37.507 37.783C37.5102 37.7799 37.5131 37.7769 37.516 37.7741C37.5174 37.7727 37.5188 37.7713 37.5202 37.7699C37.5209 37.7692 37.522 37.7682 37.5223 37.7679C37.5232 37.7669 37.5242 37.766 36.7921 37.0184C36.0599 36.2711 36.0609 36.2701 36.0619 36.2691C36.0621 36.2688 36.0631 36.2678 36.0638 36.2671C36.0651 36.2659 36.0663 36.2646 36.0675 36.2633C36.0702 36.2609 36.0725 36.2585 36.0749 36.2562C36.0797 36.2515 36.0843 36.2473 36.0886 36.2432C36.0972 36.2354 36.1049 36.2285 36.1119 36.2229C36.1254 36.2113 36.1355 36.204 36.1418 36.1997C36.1546 36.191 36.152 36.1949 36.1315 36.2026C36.0976 36.2154 35.9618 36.2594 35.6887 36.2168C35.1165 36.1278 33.9113 35.65 31.9341 33.6545L30.4698 35.1494ZM28.3091 21.6304C26.8978 19.7168 24.1227 19.4141 22.4373 21.1152L23.9016 22.61C24.6377 21.867 25.9451 21.9427 26.6466 22.8937L28.3091 21.6304ZM21.0792 26.2589C21.0519 25.7725 21.2717 25.2644 21.7285 24.8034L20.2642 23.3085C19.5202 24.0594 18.9354 25.1223 19.0057 26.3785L21.0792 26.2589ZM41.4601 43.2086C41.0796 43.5927 40.6718 43.8089 40.2617 43.8477L40.4544 45.9467C41.4715 45.8504 42.3048 45.3289 42.9244 44.7035L41.4601 43.2086ZM29.7388 29.1065C31.1018 27.7307 31.2032 25.5546 30.0549 23.9976L28.3923 25.261C28.951 26.0185 28.8679 27.0127 28.2745 27.6116L29.7388 29.1065ZM42.9177 38.3225C44.05 38.9473 44.2264 40.4165 43.4269 41.2235L44.8912 42.7184C46.7469 40.8454 46.1747 37.7203 43.9096 36.4705L42.9177 38.3225ZM38.1548 37.1295C38.6865 36.5929 39.5423 36.4599 40.2726 36.8629L41.2645 35.0109C39.7642 34.1829 37.9023 34.4116 36.6904 35.6346L38.1548 37.1295Z" fill="#FF6B00"/>
</g>
</svg>
