<svg width="106" height="50" viewBox="0 0 106 50" fill="none" xmlns="http://www.w3.org/2000/svg">
<g clip-path="url(#clip0_159_4918)">
<path fill-rule="evenodd" clip-rule="evenodd" d="M21.5707 41.8272C31.1012 41.8272 38.8272 34.1012 38.8272 24.5707C38.8272 24.2448 38.8182 23.921 38.8004 23.5995C38.3263 31.6611 31.6386 38.0524 23.4581 38.0524C14.97 38.0524 8.08896 31.1714 8.08896 22.6832C8.08896 14.5027 14.4802 7.81498 22.5418 7.34095C22.2203 7.32312 21.8966 7.31409 21.5707 7.31409C12.0401 7.31409 4.31409 15.0401 4.31409 24.5707C4.31409 34.1012 12.0401 41.8272 21.5707 41.8272Z" fill="#FF6B00"/>
<path d="M31.7197 17.2939L29.4926 25.7971C29.4269 26.0482 29.2661 26.2638 29.0443 26.3985L16.5389 33.9911C15.7529 34.4683 14.7937 33.7211 15.0641 32.8422L15.2582 32.2116C15.3297 31.9791 15.4836 31.7807 15.6909 31.6534L26.8927 24.7796C27.1112 24.6455 27.2699 24.4326 27.3359 24.1849L27.673 22.921C27.9048 22.0516 26.9602 21.3422 26.1899 21.8073L16.1474 27.8707C15.3764 28.3361 14.4313 27.6253 14.6646 26.7555L16.8822 18.4899C16.9494 18.2395 17.1112 18.025 17.3336 17.8916L28.2309 11.3531C29.0172 10.8814 29.9709 11.6283 29.7012 12.5047L29.499 13.162C29.4287 13.3903 29.2791 13.5858 29.0772 13.7134L19.4667 19.7832C19.2589 19.9144 19.1067 20.1176 19.0392 20.3539L18.7785 21.2665C18.5271 22.1464 19.4917 22.8738 20.2685 22.3901L30.2238 16.1916C30.9914 15.7136 31.9488 16.4191 31.7197 17.2939Z" fill="#FF6B00"/>
<path d="M96.0297 28.0367C96.0297 29.1009 96.7931 29.6329 98.32 29.6329C99.8622 29.6329 100.633 29.1549 100.633 28.1987C100.633 27.6897 100.371 27.2733 99.8468 26.9494C99.3224 26.6256 98.6824 26.3557 97.9267 26.1398C97.1864 25.9238 96.4384 25.6771 95.6827 25.3995C94.9424 25.1065 94.3101 24.6592 93.7858 24.0577C93.2614 23.4408 92.9992 22.6774 92.9992 21.7675C92.9992 17.8965 95.4899 15.9609 100.471 15.9609C102.291 15.9609 103.664 16.3079 104.589 17.002C105.53 17.6805 106 18.629 106 19.8474C106 20.2946 105.939 20.7265 105.815 21.1429C105.707 21.5439 105.592 21.8292 105.468 21.9988L105.283 22.2764H101.189C101.528 21.9217 101.697 21.4745 101.697 20.9347C101.697 19.9322 101.042 19.431 99.7311 19.431C98.0809 19.431 97.2558 19.9554 97.2558 21.0041C97.2558 21.5284 97.518 21.9449 98.0424 22.2533C98.5667 22.5618 99.199 22.8085 99.9393 22.9936C100.695 23.1632 101.451 23.3791 102.206 23.6413C102.962 23.9035 103.602 24.343 104.127 24.9599C104.651 25.5614 104.913 26.348 104.913 27.3196C104.913 29.2782 104.327 30.7357 103.155 31.6918C101.983 32.6326 100.178 33.103 97.7416 33.103C95.3049 33.103 93.6393 32.6712 92.7448 31.8075C92.0816 31.1598 91.75 30.2653 91.75 29.124C91.75 28.6922 91.7963 28.2218 91.8888 27.7129L91.9582 27.3427H96.1223L96.076 27.6203C96.0452 27.7745 96.0297 27.9133 96.0297 28.0367Z" fill="#203048"/>
<path d="M81.0286 28.0367C81.0286 29.1009 81.792 29.6329 83.3189 29.6329C84.8611 29.6329 85.6322 29.1549 85.6322 28.1987C85.6322 27.6897 85.3701 27.2733 84.8457 26.9494C84.3213 26.6256 83.6813 26.3557 82.9256 26.1398C82.1853 25.9238 81.4373 25.6771 80.6816 25.3995C79.9414 25.1065 79.309 24.6592 78.7847 24.0577C78.2603 23.4408 77.9981 22.6774 77.9981 21.7675C77.9981 17.8965 80.4888 15.9609 85.4703 15.9609C87.2902 15.9609 88.6628 16.3079 89.5881 17.002C90.5289 17.6805 90.9993 18.629 90.9993 19.8474C90.9993 20.2946 90.9376 20.7265 90.8142 21.1429C90.7062 21.5439 90.5906 21.8292 90.4672 21.9988L90.2821 22.2764H86.1874C86.5267 21.9217 86.6964 21.4745 86.6964 20.9347C86.6964 19.9322 86.0409 19.431 84.73 19.431C83.0798 19.431 82.2547 19.9554 82.2547 21.0041C82.2547 21.5284 82.5169 21.9449 83.0413 22.2533C83.5656 22.5618 84.198 22.8085 84.9382 22.9936C85.6939 23.1632 86.4496 23.3791 87.2053 23.6413C87.961 23.9035 88.6011 24.343 89.1254 24.9599C89.6498 25.5614 89.912 26.348 89.912 27.3196C89.912 29.2782 89.3259 30.7357 88.1538 31.6918C86.9817 32.6326 85.1773 33.103 82.7405 33.103C80.3038 33.103 78.6382 32.6712 77.7436 31.8075C77.0805 31.1598 76.7489 30.2653 76.7489 29.124C76.7489 28.6922 76.7952 28.2218 76.8877 27.7129L76.9571 27.3427H81.1212L81.0749 27.6203C81.0441 27.7745 81.0286 27.9133 81.0286 28.0367Z" fill="#203048"/>
<path d="M70.247 15.9609C73.9638 15.9609 75.8222 17.48 75.8222 20.5183C75.8222 21.0272 75.7683 21.5747 75.6603 22.1608L74.8506 26.7875C74.4805 28.9312 73.6785 30.5197 72.4447 31.553C71.2109 32.5863 69.4759 33.103 67.2396 33.103C65.0034 33.103 63.4457 32.5863 62.5666 31.553C61.9652 30.8436 61.6644 29.8643 61.6644 28.6151C61.6644 28.0599 61.7261 27.4507 61.8495 26.7875L62.6592 22.1608C63.384 18.0275 65.9133 15.9609 70.247 15.9609ZM67.8643 29.5173C68.6354 29.5173 69.2523 29.3168 69.715 28.9158C70.1776 28.5148 70.5015 27.7745 70.6866 26.695L71.4731 22.2533C71.5194 21.9449 71.5425 21.6672 71.5425 21.4205C71.5425 20.1713 70.9102 19.5467 69.6456 19.5467C68.057 19.5775 67.1086 20.4797 66.8001 22.2533L66.0136 26.695C65.9519 27.0805 65.921 27.4815 65.921 27.8979C65.921 28.9775 66.5688 29.5173 67.8643 29.5173Z" fill="#203048"/>
<path d="M52.1229 33.103C49.9175 33.103 48.3906 32.6249 47.5424 31.6687C46.9564 30.9901 46.6633 30.0416 46.6633 28.8233C46.6633 28.2989 46.7173 27.736 46.8253 27.1345L47.7737 21.8138C48.4678 17.9119 50.9739 15.9609 55.2922 15.9609C57.0812 15.9609 58.4384 16.3465 59.3637 17.1176C60.2891 17.8733 60.7517 18.9143 60.7517 20.2407C60.7517 20.8576 60.6592 21.4745 60.4741 22.0914C60.3045 22.6928 60.1348 23.1401 59.9652 23.4331L59.7107 23.8958H55.6161C56.125 23.3097 56.3795 22.4769 56.3795 21.3974C56.3795 20.8267 56.233 20.3795 55.9399 20.0556C55.6469 19.7163 55.2151 19.5467 54.6445 19.5467C53.0868 19.5467 52.1614 20.4103 51.8684 22.1376L51.0587 26.8106C50.9816 27.2116 50.9431 27.6049 50.9431 27.9905C50.9431 29.0083 51.5522 29.5173 52.7706 29.5173C54.2358 29.5173 55.1148 28.6922 55.4079 27.042H59.5719L59.4563 27.7129C58.8394 31.3063 56.3949 33.103 52.1229 33.103Z" fill="#203048"/>
</g>
<defs>
<clipPath id="clip0_159_4918">
<rect width="106" height="50" fill="white"/>
</clipPath>
</defs>
</svg>
