<svg width="50" height="50" viewBox="0 0 50 50" fill="none" xmlns="http://www.w3.org/2000/svg">
<path fill-rule="evenodd" clip-rule="evenodd" d="M24.6 44.2C35.4248 44.2 44.2 35.4248 44.2 24.6C44.2 24.2298 44.1897 23.862 44.1695 23.4969C43.6311 32.6533 36.0352 39.9125 26.7437 39.9125C17.1029 39.9125 9.28749 32.0971 9.28749 22.4562C9.28749 13.1648 16.5467 5.56891 25.703 5.03051C25.3379 5.01026 24.9701 5 24.6 5C13.7752 5 5 13.7752 5 24.6C5 35.4248 13.7752 44.2 24.6 44.2Z" fill="#FF6B00"/>
<path d="M36.214 16.0049L33.5842 26.0461C33.5184 26.2971 33.3576 26.5128 33.1358 26.6475L18.5799 35.485C17.7939 35.9622 16.8347 35.215 17.1051 34.3361L17.4456 33.2295C17.5172 32.997 17.671 32.7986 17.8784 32.6713L30.6913 24.8088C30.9098 24.6748 31.0685 24.4619 31.1345 24.2142L31.618 22.401C31.8499 21.5316 30.9052 20.8222 30.1349 21.2873L18.1517 28.5224C17.3808 28.9879 16.4357 28.277 16.669 27.4072L19.2894 17.6404C19.3566 17.39 19.5184 17.1754 19.7407 17.042L32.4689 9.40513C33.2552 8.93337 34.2089 9.68032 33.9392 10.5567L33.5905 11.69C33.5203 11.9183 33.3706 12.1139 33.1687 12.2414L22.1668 19.1899C21.959 19.3212 21.8068 19.5244 21.7393 19.7607L21.3321 21.1859C21.0807 22.0658 22.0453 22.7932 22.8222 22.3096L34.718 14.9027C35.4857 14.4247 36.4431 15.1301 36.214 16.0049Z" fill="#FF6B00"/>
</svg>
